<svg width="78" height="78" xmlns="http://www.w3.org/2000/svg">

 <g>
  <title>background</title>
  <rect fill="none" id="canvas_background" height="402" width="582" y="-1" x="-1"/>
 </g>
 <g>
  <title>Layer 1</title>
  <path id="svg_2" fill="#ffffff" d="m69,30.451c0,-16.568 -13.431,-30 -30,-30c-16.568,0 -30,13.432 -30,30c0,7.086 2.464,13.596 6.572,18.729c0.001,0.001 0.002,0.003 0.001,0.004s-0.002,0.002 -0.004,0.002c7.746,9.674 18.693,23.347 22.259,27.8c0.285,0.355 0.716,0.562 1.171,0.563c0.456,0 0.888,-0.206 1.172,-0.562c3.564,-4.452 14.508,-18.119 22.254,-27.794c0.001,-0.001 0.002,-0.003 0.001,-0.004s-0.002,-0.002 -0.004,-0.002c4.112,-5.135 6.578,-11.645 6.578,-18.736zm-11.433,15.209l-18.567,23.191l-18.387,-22.964l-0.188,-0.234c-0.055,-0.075 -0.111,-0.149 -0.169,-0.222c-3.439,-4.297 -5.256,-9.477 -5.256,-14.98c0,-13.234 10.767,-24 24,-24s24,10.766 24,24c0,5.506 -1.819,10.688 -5.262,14.986c-0.058,0.073 -0.115,0.147 -0.171,0.223z"/>
  <circle id="svg_3" fill="#ffffff" r="10.5" cy="30.451" cx="38.767581"/>
 </g>
</svg>